<svg id="_1" data-name="1" xmlns="http://www.w3.org/2000/svg" viewBox="0 0 2048 1024"><defs><style>.cls-1{fill:#9a6c3f;}.cls-2{fill:#73553b;}.cls-3{fill:#a181fa;}.cls-4{fill:#feffaf;}.cls-5{fill:#0956cd;}.cls-6{fill:#fff;}</style></defs><g id="long_dark" data-name="long dark"><g id="long"><g id="logo"><rect class="cls-1" x="338.28" y="360.44" width="501.3" height="360.31" rx="30"/><path class="cls-2" d="M362.8,355.21h48.33a0,0,0,0,1,0,0v0a78.33,78.33,0,0,1-78.33,78.33h0a0,0,0,0,1,0,0V385.21A30,30,0,0,1,362.8,355.21Z"/><path class="cls-2" d="M362.8,647.64h48.33a0,0,0,0,1,0,0v0A78.33,78.33,0,0,1,332.8,726h0a0,0,0,0,1,0,0V677.64A30,30,0,0,1,362.8,647.64Z" transform="translate(-314.84 1058.76) rotate(-90)"/><path class="cls-2" d="M766.47,355.21h0a78.33,78.33,0,0,1,78.33,78.33v0a0,0,0,0,1,0,0H796.47a30,30,0,0,1-30-30V355.21A0,0,0,0,1,766.47,355.21Z" transform="translate(1611.27 788.76) rotate(180)"/><path class="cls-2" d="M766.47,647.64h0A78.33,78.33,0,0,1,844.8,726v0a0,0,0,0,1,0,0H796.47a30,30,0,0,1-30-30V647.64A0,0,0,0,1,766.47,647.64Z" transform="translate(118.83 1492.43) rotate(-90)"/><path class="cls-2" d="M675.09,337.2v23.5H646.37v-17A14.36,14.36,0,0,0,632,329.37H545.85a14.36,14.36,0,0,0-14.36,14.36v17H502.77V337.2A39.16,39.16,0,0,1,541.93,298h94A39.17,39.17,0,0,1,675.09,337.2Z"/><rect class="cls-2" x="436.19" y="355.21" width="41.77" height="370.75"/><rect class="cls-2" x="699.89" y="355.21" width="41.77" height="370.75"/><rect class="cls-3" x="501.78" y="453.85" width="174.29" height="116.2" transform="translate(-112.44 169.87) rotate(-15)"/><rect class="cls-4" x="524.55" y="536.52" width="148.82" height="99.21" transform="translate(110.88 -95.1) rotate(10)"/><path class="cls-5" d="M588.93,462.26a52.22,52.22,0,0,0-52.22,52.22c0,28.84,52.22,104.44,52.22,104.44s52.22-75.6,52.22-104.44A52.22,52.22,0,0,0,588.93,462.26Zm0,69.63a17.41,17.41,0,1,1,17.4-17.41A17.42,17.42,0,0,1,588.93,531.89Z"/></g><g id="name"><path class="cls-6" d="M1020,520.85a32.38,32.38,0,0,0-13.2-13.82,39.73,39.73,0,0,0-19.53-4.66,42.75,42.75,0,0,0-21.65,5.45,38.16,38.16,0,0,0-14.87,15.49,48.48,48.48,0,0,0-5.37,23.23,49,49,0,0,0,5.37,23.32,38,38,0,0,0,14.87,15.58,42.65,42.65,0,0,0,21.65,5.46q16.37,0,26.57-9.16t12.5-24.81H980.41v-16h67.41v15.67A60.4,60.4,0,0,1,987.28,609a63.23,63.23,0,0,1-31.51-8,59.68,59.68,0,0,1-22.61-22.27,66.21,66.21,0,0,1,0-64.41,59.49,59.49,0,0,1,22.7-22.27,63.33,63.33,0,0,1,31.42-8q19.53,0,34.76,9.6a54.61,54.61,0,0,1,22.08,27.19Z"/><path class="cls-6" d="M1155.36,511v97h-20.07V596.53a32.35,32.35,0,0,1-12.41,9.41,39.3,39.3,0,0,1-16.28,3.44,43.46,43.46,0,0,1-20.5-4.76,34.29,34.29,0,0,1-14.26-14.08q-5.19-9.31-5.19-22.52V511h19.89v54q0,13,6.51,20t17.78,7q11.26,0,17.86-7t6.6-20V511Z"/><path class="cls-6" d="M1182.81,494.45a12.85,12.85,0,0,1,9.15-22,12.25,12.25,0,0,1,9,3.69,13.2,13.2,0,0,1,0,18.31,12.25,12.25,0,0,1-9,3.69A12.43,12.43,0,0,1,1182.81,494.45Zm19,16.54v97h-20.07V511Z"/><path class="cls-6" d="M1227.6,533.17a44.24,44.24,0,0,1,39.86-23.76,45.6,45.6,0,0,1,18.75,4.13,38.36,38.36,0,0,1,14.69,11V477.73h20.24V608H1300.9V593.36A37.54,37.54,0,0,1,1287.26,605a42.28,42.28,0,0,1-20,4.57,43.43,43.43,0,0,1-23.15-6.42,45.37,45.37,0,0,1-16.54-18,55.23,55.23,0,0,1-6.07-26.14Q1221.53,544.43,1227.6,533.17Zm69.17,8.8a29.12,29.12,0,0,0-10.83-11.27,28.33,28.33,0,0,0-14.43-3.87,28.48,28.48,0,0,0-25.25,14.87,34.6,34.6,0,0,0-4.14,17.34,36.08,36.08,0,0,0,4.14,17.6,29.08,29.08,0,0,0,10.91,11.53,28,28,0,0,0,14.34,4,28.33,28.33,0,0,0,14.43-3.87,28.9,28.9,0,0,0,10.83-11.36,35.66,35.66,0,0,0,4.13-17.51A35.18,35.18,0,0,0,1296.77,542Z"/><path class="cls-6" d="M1435.72,567h-74.1q.89,11.61,8.63,18.66a27.22,27.22,0,0,0,19,7q16.18,0,22.88-13.56h21.64A43.65,43.65,0,0,1,1417.85,601q-11.52,8.54-28.59,8.53a49.47,49.47,0,0,1-24.91-6.25,44.46,44.46,0,0,1-17.25-17.6q-6.24-11.34-6.25-26.31t6.08-26.31A42.67,42.67,0,0,1,1364,515.57a50.76,50.76,0,0,1,25.26-6.16,49.38,49.38,0,0,1,24.46,6,42.32,42.32,0,0,1,16.72,16.81,50.63,50.63,0,0,1,6,24.9A62.68,62.68,0,0,1,1435.72,567Zm-20.24-16.19q-.18-11.09-7.92-17.78t-19.18-6.69a25.77,25.77,0,0,0-17.78,6.6q-7.39,6.6-8.8,17.87Z"/><path class="cls-5" d="M1601.51,483.36V608h-38.9V545.84L1543.43,608H1510l-19.18-62.13V608h-39.08V483.36h47.87l27.46,74.8,26.75-74.8Z"/><path class="cls-5" d="M1714.68,565.2h-62.84q.89,12.85,10.74,12.85a9.51,9.51,0,0,0,9.15-5.81h41.36a43,43,0,0,1-8.89,18.92,47.71,47.71,0,0,1-17.07,13.2,52.41,52.41,0,0,1-22.61,4.84A55,55,0,0,1,1638.2,603a43.81,43.81,0,0,1-18-17.69q-6.42-11.52-6.42-27t6.42-27a43.87,43.87,0,0,1,18-17.69,55.07,55.07,0,0,1,26.32-6.16,55.73,55.73,0,0,1,26.31,6.07,43.77,43.77,0,0,1,18,17.34q6.42,11.26,6.42,26.58A55,55,0,0,1,1714.68,565.2Zm-39.08-17.07q0-4.93-3.16-7.48a12.26,12.26,0,0,0-7.92-2.55q-10.39,0-12.15,10Z"/></g></g></g></svg>