<svg width="298" height="92" viewBox="0 0 298 92" fill="none" xmlns="http://www.w3.org/2000/svg">
<path d="M102.502 13.4153H7.62781C4.06577 13.4153 1.17816 16.3029 1.17816 19.8649V84.4281C1.17816 87.9902 4.06577 90.8778 7.62781 90.8778H102.502C106.064 90.8778 108.952 87.9902 108.952 84.4281V19.8649C108.952 16.3029 106.064 13.4153 102.502 13.4153Z" fill="#9A6C3F"/>
<path d="M6.44965 12.293H16.84C16.84 16.7593 15.0658 21.0426 11.9077 24.2007C8.74959 27.3589 4.46626 29.1331 0 29.1331H0V18.7427C0 17.0321 0.679515 15.3916 1.88906 14.1821C3.0986 12.9725 4.7391 12.293 6.44965 12.293Z" fill="#73553B"/>
<path d="M0 85.5503L0 75.16C4.46626 75.16 8.74959 76.9342 11.9077 80.0923C15.0658 83.2504 16.84 87.5337 16.84 92H6.44965C4.7391 92 3.09861 91.3205 1.88906 90.1109C0.679517 88.9014 0 87.2609 0 85.5503Z" fill="#73553B"/>
<path d="M110.074 29.1331C105.608 29.1331 101.325 27.3588 98.1664 24.2007C95.0083 21.0426 93.2341 16.7593 93.2341 12.293L103.624 12.293C105.335 12.293 106.975 12.9725 108.185 14.1821C109.395 15.3916 110.074 17.0321 110.074 18.7427V29.1331Z" fill="#73553B"/>
<path d="M93.234 92C93.234 87.5337 95.0082 83.2504 98.1663 80.0923C101.324 76.9342 105.608 75.16 110.074 75.16V85.5503C110.074 87.2609 109.395 88.9014 108.185 90.1109C106.975 91.3205 105.335 92 103.624 92H93.234Z" fill="#73553B"/>
<path d="M73.5884 8.41895V13.4712H67.4139V9.81637C67.4139 8.99759 67.0887 8.21234 66.5097 7.63337C65.9307 7.0544 65.1455 6.72914 64.3267 6.72914H45.8033C44.9845 6.72914 44.1993 7.0544 43.6203 7.63337C43.0413 8.21234 42.7161 8.99759 42.7161 9.81637V13.4712H36.548V8.41895C36.548 6.18722 37.4341 4.04681 39.0116 2.46813C40.5891 0.889458 42.7288 0.0017097 44.9605 0L65.1694 0C67.4023 0 69.5437 0.886994 71.1225 2.46585C72.7014 4.04471 73.5884 6.1861 73.5884 8.41895Z" fill="#73553B"/>
<path d="M31.2077 12.293H22.2277V92H31.2077V12.293Z" fill="#73553B"/>
<path d="M87.9002 12.293H78.9201V92H87.9002V12.293Z" fill="#73553B"/>
<path d="M69.9277 29.0763L33.7341 38.7743L40.1999 62.9047L76.3934 53.2067L69.9277 29.0763Z" fill="#0F4699"/>
<path d="M74.8294 54.2132L43.3209 48.6574L39.6172 69.6624L71.1257 75.2182L74.8294 54.2132Z" fill="#FEFFAF"/>
<path d="M55.2267 35C52.2496 35 49.3943 36.1825 47.289 38.2875C45.1836 40.3924 44.0006 43.2474 44 46.2245C44 52.4248 55.2267 68.6779 55.2267 68.6779C55.2267 68.6779 66.4534 52.4248 66.4534 46.2245C66.4528 43.2474 65.2698 40.3924 63.1644 38.2875C61.0591 36.1825 58.2038 35 55.2267 35ZM55.2267 49.9675C54.4864 49.9675 53.7627 49.748 53.1472 49.3367C52.5317 48.9254 52.052 48.3408 51.7687 47.6569C51.4854 46.973 51.4112 46.2204 51.5557 45.4943C51.7001 44.7683 52.0566 44.1013 52.58 43.5779C53.1035 43.0544 53.7704 42.6979 54.4965 42.5535C55.2225 42.4091 55.9751 42.4832 56.6591 42.7665C57.343 43.0498 57.9276 43.5296 58.3388 44.1451C58.7501 44.7606 58.9696 45.4843 58.9696 46.2245C58.9696 46.7161 58.8728 47.2028 58.6847 47.6569C58.4966 48.111 58.2209 48.5236 57.8734 48.8712C57.5258 49.2188 57.1132 49.4945 56.6591 49.6826C56.2049 49.8707 55.7182 49.9675 55.2267 49.9675Z" fill="#FB817E"/>
<path d="M147.744 47.9016C147.118 46.6482 146.127 45.6134 144.902 44.9326C143.611 44.2442 142.164 43.8985 140.701 43.9286C139.073 43.8999 137.467 44.305 136.047 45.1024C134.69 45.8867 133.585 47.042 132.863 48.4326C132.093 49.8658 131.708 51.5306 131.708 53.4268C131.673 55.1677 132.07 56.8902 132.863 58.4403C133.584 59.8405 134.694 61.0028 136.06 61.7877C137.48 62.585 139.086 62.9902 140.714 62.9615C143.06 62.9615 144.965 62.3058 146.429 60.9944C147.892 59.6829 148.787 57.9043 149.114 55.6583H139.231V52.2185H153.717V55.5852C153.299 58.7292 151.745 61.6115 149.348 63.6886C146.951 65.7658 143.877 66.8943 140.706 66.8614C138.337 66.8884 136.002 66.2955 133.933 65.1415C131.91 64.0144 130.23 62.3607 129.07 60.3558C127.892 58.2382 127.273 55.8547 127.273 53.4311C127.273 51.0075 127.892 48.624 129.07 46.5063C130.231 44.4935 131.919 42.8346 133.951 41.7077C136.015 40.5586 138.343 39.9659 140.706 39.9878C143.505 39.9878 145.996 40.6751 148.179 42.0496C150.36 43.4244 152.029 45.4784 152.928 47.8951L147.744 47.9016Z" fill="white"/>
<path d="M176.841 45.7925V66.6464H172.528V64.1719C171.816 65.053 170.9 65.748 169.86 66.1971C168.759 66.6895 167.566 66.9409 166.36 66.9345C164.829 66.9605 163.315 66.6099 161.951 65.9133C160.651 65.2313 159.585 64.1774 158.887 62.8863C158.142 61.549 157.77 59.9345 157.771 58.0426V45.7925H162.045V57.4019C162.045 59.2652 162.512 60.6984 163.445 61.7017C164.378 62.705 165.652 63.2066 167.267 63.2066C168.881 63.2066 170.162 62.705 171.109 61.7017C172.057 60.6984 172.53 59.2652 172.528 57.4019V45.7925H176.841Z" fill="white"/>
<path d="M182.74 42.2259C182.348 41.8393 182.08 41.3444 181.972 40.8047C181.863 40.265 181.918 39.705 182.129 39.1967C182.341 38.6884 182.7 38.2549 183.159 37.9519C183.619 37.6489 184.159 37.4902 184.709 37.4961C185.069 37.4889 185.427 37.5558 185.76 37.6926C186.093 37.8295 186.394 38.0333 186.644 38.2916C187.155 38.8192 187.44 39.5246 187.44 40.2587C187.44 40.9929 187.155 41.6982 186.644 42.2259C186.394 42.4841 186.093 42.688 185.76 42.8249C185.427 42.9617 185.069 43.0286 184.709 43.0213C184.344 43.0304 183.981 42.9645 183.642 42.8277C183.304 42.6908 182.997 42.486 182.74 42.2259ZM186.825 45.7925V66.6464H182.525V45.7925H186.825Z" fill="white"/>
<path d="M192.372 50.5502C193.188 48.9889 194.421 47.6847 195.934 46.7828C197.448 45.881 199.182 45.4168 200.943 45.4421C202.334 45.4486 203.708 45.752 204.972 46.3322C206.201 46.8531 207.286 47.6646 208.132 48.697V38.6313H212.484V66.6314H208.132V63.4904C207.371 64.5477 206.365 65.4048 205.2 65.9886C203.869 66.6643 202.393 67.0024 200.9 66.9732C199.145 66.9905 197.42 66.5113 195.925 65.5908C194.409 64.6542 193.178 63.3194 192.367 61.7318C191.479 59.9936 191.032 58.0636 191.067 56.112C191.03 54.1781 191.478 52.2658 192.372 50.5502ZM207.242 52.4421C206.703 51.4377 205.898 50.6004 204.916 50.0214C203.975 49.4715 202.904 49.1841 201.814 49.1894C200.726 49.1833 199.655 49.4636 198.709 50.002C197.728 50.5663 196.923 51.3916 196.383 52.3862C195.766 53.5291 195.459 54.8137 195.493 56.112C195.464 57.4284 195.77 58.7305 196.383 59.8958C196.92 60.9236 197.732 61.7818 198.729 62.3746C199.661 62.9346 200.727 63.2318 201.814 63.2346C202.904 63.2398 203.975 62.9525 204.916 62.4026C205.906 61.8182 206.713 60.9704 207.249 59.9538C207.863 58.7959 208.169 57.4997 208.139 56.1894C208.171 54.8844 207.865 53.5932 207.249 52.4421H207.242Z" fill="white"/>
<path d="M237.115 57.8147H221.187C221.311 59.4816 221.929 60.8188 223.04 61.8264C224.157 62.8342 225.62 63.3731 227.125 63.3313C229.444 63.3313 231.083 62.3602 232.043 60.4182H236.702C236.09 62.3162 234.89 63.9703 233.275 65.1415C231.621 66.364 229.572 66.976 227.127 66.9775C225.255 67.0073 223.408 66.5439 221.771 65.6338C220.204 64.7471 218.919 63.4354 218.065 61.85C217.169 60.2233 216.721 58.3378 216.721 56.1937C216.721 54.0495 217.156 52.1633 218.026 50.5352C218.857 48.9501 220.133 47.6418 221.696 46.7707C223.361 45.8666 225.232 45.4103 227.127 45.4464C228.962 45.4146 230.773 45.859 232.385 46.7363C233.903 47.573 235.15 48.8262 235.98 50.3481C236.862 51.9932 237.306 53.8373 237.27 55.7035C237.274 56.4102 237.222 57.1161 237.115 57.8147ZM232.764 54.334C232.738 52.746 232.17 51.4725 231.061 50.5137C229.952 49.5548 228.577 49.0754 226.937 49.0754C225.529 49.0453 224.162 49.5526 223.115 50.4943C222.054 51.4403 221.424 52.7202 221.223 54.334H232.764Z" fill="white"/>
<path d="M272.758 39.8417V66.6314H264.397V53.2742L260.271 66.6314H253.082L248.957 53.2742V66.6314H240.557V39.8417H250.849L256.75 55.9228L262.503 39.8417H272.758Z" fill="#FB817E"/>
<path d="M297.088 57.4363H283.58C283.705 59.278 284.474 60.1989 285.887 60.1989C286.304 60.2167 286.715 60.1065 287.067 59.8832C287.419 59.6599 287.694 59.3341 287.854 58.9498H296.746C296.454 60.4421 295.798 61.8392 294.837 63.0174C293.847 64.232 292.59 65.2028 291.165 65.8552C289.643 66.5596 287.982 66.9151 286.304 66.8958C284.338 66.9326 282.394 66.4773 280.648 65.5715C279.013 64.7122 277.667 63.3901 276.778 61.7705C275.857 60.1165 275.396 58.1816 275.396 55.9658C275.396 53.75 275.857 51.8151 276.778 50.1611C277.667 48.5414 279.013 47.2194 280.648 46.3601C282.394 45.4542 284.338 44.999 286.304 45.0358C288.268 44.9992 290.211 45.4474 291.961 46.3407C293.585 47.1801 294.93 48.4748 295.831 50.0665C296.751 51.6803 297.211 53.5851 297.213 55.7809C297.21 56.3349 297.169 56.8881 297.088 57.4363ZM288.689 53.7664C288.689 53.0613 288.461 52.5238 288.007 52.1583C287.521 51.782 286.919 51.588 286.304 51.6101C284.814 51.6101 283.944 52.3267 283.694 53.76L288.689 53.7664Z" fill="#FB817E"/>
</svg>
