<svg id="_1" data-name="1" xmlns="http://www.w3.org/2000/svg" viewBox="0 0 1024 1024"><defs><style>.cls-1{fill:#9a6c3f;}.cls-2{fill:#73553b;}.cls-3{fill:#a181fa;}.cls-4{fill:#feffaf;}.cls-5{fill:#0956cd;}</style></defs><g id="logo"><rect class="cls-1" x="32" y="212.5" width="960" height="690" rx="30"/><path class="cls-2" d="M51.5,202.5h120a0,0,0,0,1,0,0v60a90,90,0,0,1-90,90h-60a0,0,0,0,1,0,0v-120A30,30,0,0,1,51.5,202.5Z"/><path class="cls-2" d="M51.5,762.5h120a0,0,0,0,1,0,0v60a90,90,0,0,1-90,90h-60a0,0,0,0,1,0,0v-120A30,30,0,0,1,51.5,762.5Z" transform="translate(-741 934) rotate(-90)"/><path class="cls-2" d="M852,202.5h60a90,90,0,0,1,90,90v60a0,0,0,0,1,0,0H882a30,30,0,0,1-30-30v-120A0,0,0,0,1,852,202.5Z" transform="translate(1854 555) rotate(-180)"/><path class="cls-2" d="M852,762.5h60a90,90,0,0,1,90,90v60a0,0,0,0,1,0,0H882a30,30,0,0,1-30-30v-120A0,0,0,0,1,852,762.5Z" transform="translate(89.5 1764.5) rotate(-90)"/><path class="cls-2" d="M677,168v45H622V180.5A27.5,27.5,0,0,0,594.5,153h-165A27.5,27.5,0,0,0,402,180.5V213H347V168a75,75,0,0,1,75-75H602A75,75,0,0,1,677,168Z"/><rect class="cls-2" x="219.5" y="202.5" width="80" height="710"/><rect class="cls-2" x="724.5" y="202.5" width="80" height="710"/><rect class="cls-3" x="345.11" y="391.39" width="333.78" height="222.52" transform="translate(-112.65 149.64) rotate(-15)"/><rect class="cls-4" x="388.72" y="549.71" width="285" height="190" transform="translate(120.02 -82.45) rotate(10)"/><path class="cls-5" d="M512,407.5a100,100,0,0,0-100,100c0,55.23,100,200,100,200s100-144.77,100-200A100,100,0,0,0,512,407.5Zm0,133.33a33.33,33.33,0,1,1,33.33-33.33A33.33,33.33,0,0,1,512,540.83Z"/></g></svg>