<svg id="_1" data-name="1" xmlns="http://www.w3.org/2000/svg" viewBox="0 0 2048 1024"><defs><style>.cls-1{fill:#fff;}.cls-2{fill:#9a6c3f;}.cls-3{fill:#73553b;}.cls-4{fill:#a181fa;}.cls-5{fill:#feffaf;}.cls-6{fill:#0956cd;}</style></defs><g id="long_primary" data-name="long primary"><path class="cls-1" d="M871.17,465.54h5.23V385.21a62.08,62.08,0,0,0-62-62H705.31A71.29,71.29,0,0,0,635.52,266h-94a71.28,71.28,0,0,0-69.78,57.17H362.4a62.07,62.07,0,0,0-62,62v80.33h5.48v150.1H300.4V696a62.07,62.07,0,0,0,62,62H509.56v-5.22H667.49V758H814.4a62.07,62.07,0,0,0,62-62V615.64h-5.23Z"/><path class="cls-1" d="M1745.68,540.24h-.4a82.55,82.55,0,0,0-2.81-11,76.56,76.56,0,0,0-6.29-14.2,75.46,75.46,0,0,0-30.84-29.8,82.54,82.54,0,0,0-12.5-5.3,91.12,91.12,0,0,0-28.72-4.46,92.71,92.71,0,0,0-20.63,2.24,82.14,82.14,0,0,0-10.38,3.06V451.36H1530.87l-4.6,12.87-4.72-12.87H1419.33v31.58a87.27,87.27,0,0,0-66.59,2.25V445.73H1268.5v31.69h-1.44a77.25,77.25,0,0,0-30.86,6.23,44.75,44.75,0,0,0-89.06-4.65h-93a86.06,86.06,0,0,0-15.47-12.4c-15.3-9.64-32.73-14.53-51.82-14.53a95.3,95.3,0,0,0-47,12.07,91.43,91.43,0,0,0-34.71,34,98.22,98.22,0,0,0,0,96.79,91.62,91.62,0,0,0,34.55,34A95.14,95.14,0,0,0,986.88,641a91.9,91.9,0,0,0,44.41-11,93.51,93.51,0,0,0,19.1-13.68A65.49,65.49,0,0,0,1070.84,633a75.31,75.31,0,0,0,35.36,8.41,73.2,73.2,0,0,0,14.32-1.41h112.9v-6a75.37,75.37,0,0,0,33.47,7.62A80.53,80.53,0,0,0,1283,640h69.77v-6.43a82.23,82.23,0,0,0,36.12,8,84,84,0,0,0,30.47-5.38V640h213.78v-4.06a89.53,89.53,0,0,0,31,5.29,84.44,84.44,0,0,0,36.23-7.88,79.75,79.75,0,0,0,28.31-22,75.62,75.62,0,0,0,8.5-13q.3-.55.57-1.11h0a82.65,82.65,0,0,0,9.76-36c0-1.07.07-2.14.07-3.22A82.46,82.46,0,0,0,1745.68,540.24Z"/><g id="long"><g id="logo"><rect class="cls-2" x="337.88" y="360.44" width="501.3" height="360.31" rx="30"/><path class="cls-3" d="M362.4,355.21h48.33a0,0,0,0,1,0,0v0a78.33,78.33,0,0,1-78.33,78.33h0a0,0,0,0,1,0,0V385.21A30,30,0,0,1,362.4,355.21Z"/><path class="cls-3" d="M362.4,647.64h48.33a0,0,0,0,1,0,0v0A78.33,78.33,0,0,1,332.4,726h0a0,0,0,0,1,0,0V677.64A30,30,0,0,1,362.4,647.64Z" transform="translate(-315.24 1058.36) rotate(-90)"/><path class="cls-3" d="M766.07,355.21h0a78.33,78.33,0,0,1,78.33,78.33v0a0,0,0,0,1,0,0H796.07a30,30,0,0,1-30-30V355.21A0,0,0,0,1,766.07,355.21Z" transform="translate(1610.47 788.76) rotate(180)"/><path class="cls-3" d="M766.07,647.64h0A78.33,78.33,0,0,1,844.4,726v0a0,0,0,0,1,0,0H796.07a30,30,0,0,1-30-30V647.64A0,0,0,0,1,766.07,647.64Z" transform="translate(118.43 1492.03) rotate(-90)"/><path class="cls-3" d="M674.69,337.2v23.5H646v-17a14.36,14.36,0,0,0-14.36-14.36H545.45a14.36,14.36,0,0,0-14.36,14.36v17H502.37V337.2A39.16,39.16,0,0,1,541.53,298h94A39.17,39.17,0,0,1,674.69,337.2Z"/><rect class="cls-3" x="435.79" y="355.21" width="41.77" height="370.75"/><rect class="cls-3" x="699.49" y="355.21" width="41.77" height="370.75"/><rect class="cls-4" x="501.38" y="453.85" width="174.29" height="116.2" transform="translate(-112.45 169.77) rotate(-15)"/><rect class="cls-5" x="524.15" y="536.52" width="148.82" height="99.21" transform="matrix(0.98, 0.17, -0.17, 0.98, 110.87, -95.04)"/><path class="cls-6" d="M588.53,462.26a52.22,52.22,0,0,0-52.22,52.22c0,28.84,52.22,104.44,52.22,104.44s52.22-75.6,52.22-104.44A52.22,52.22,0,0,0,588.53,462.26Zm0,69.63a17.41,17.41,0,1,1,17.4-17.41A17.42,17.42,0,0,1,588.53,531.89Z"/></g><g id="name"><path d="M980,540.91v16H1026q-2.29,15.66-12.5,24.81t-26.57,9.16a42.65,42.65,0,0,1-21.65-5.46,38,38,0,0,1-14.87-15.58A49,49,0,0,1,945,546.54a48.48,48.48,0,0,1,5.37-23.23,38.16,38.16,0,0,1,14.87-15.49,42.75,42.75,0,0,1,21.65-5.45,39.73,39.73,0,0,1,19.53,4.66,32.38,32.38,0,0,1,13.2,13.82h24.11a54.61,54.61,0,0,0-22.08-27.19q-15.23-9.6-34.76-9.6a63.33,63.33,0,0,0-31.42,8,59.49,59.49,0,0,0-22.7,22.27,66.21,66.21,0,0,0,0,64.41A59.68,59.68,0,0,0,955.37,601a63.23,63.23,0,0,0,31.51,8,60.53,60.53,0,0,0,60.54-52.44V540.91Z"/><path d="M1134.89,511v54q0,13-6.6,20t-17.86,7q-11.27,0-17.78-7t-6.51-20V511h-19.89v57q0,13.2,5.19,22.52a34.29,34.29,0,0,0,14.26,14.08,43.46,43.46,0,0,0,20.5,4.76,39.3,39.3,0,0,0,16.28-3.44,32.35,32.35,0,0,0,12.41-9.41V608H1155V511Z"/><path d="M1181.35,511v97h20.07V511Zm19.19-34.85a12.25,12.25,0,0,0-9-3.69,12.85,12.85,0,1,0,0,25.69,12.25,12.25,0,0,0,9-3.69,13.2,13.2,0,0,0,0-18.31Z"/><path d="M1300.5,477.73v46.81a38.36,38.36,0,0,0-14.69-11,45.6,45.6,0,0,0-18.75-4.13,44.24,44.24,0,0,0-39.86,23.76q-6.08,11.26-6.07,25.87a55.23,55.23,0,0,0,6.07,26.14,45.37,45.37,0,0,0,16.54,18,43.43,43.43,0,0,0,23.15,6.42,42.28,42.28,0,0,0,20-4.57,37.54,37.54,0,0,0,13.64-11.62V608h20.24V477.73Zm-4.13,99.17a28.9,28.9,0,0,1-10.83,11.36,28.33,28.33,0,0,1-14.43,3.87,28,28,0,0,1-14.34-4,29.08,29.08,0,0,1-10.91-11.53,36.08,36.08,0,0,1-4.14-17.6,34.6,34.6,0,0,1,4.14-17.34,28.86,28.86,0,0,1,39.68-11A29.12,29.12,0,0,1,1296.37,542a35.18,35.18,0,0,1,4.13,17.42A35.66,35.66,0,0,1,1296.37,576.9Z"/><path d="M1436,557.1a50.63,50.63,0,0,0-6-24.9,42.32,42.32,0,0,0-16.72-16.81,49.38,49.38,0,0,0-24.46-6,50.76,50.76,0,0,0-25.26,6.16,42.67,42.67,0,0,0-17.07,17.51q-6.08,11.35-6.08,26.31t6.25,26.31A44.46,44.46,0,0,0,1364,603.3a49.47,49.47,0,0,0,24.91,6.25q17.06,0,28.59-8.53a43.65,43.65,0,0,0,15.93-21.92h-21.64q-6.71,13.56-22.88,13.56a27.22,27.22,0,0,1-19-7q-7.75-7.05-8.63-18.66h74.1A62.68,62.68,0,0,0,1436,557.1Zm-74.62-6.33q1.41-11.26,8.8-17.87a25.77,25.77,0,0,1,17.78-6.6q11.43,0,19.18,6.69t7.92,17.78Z"/><path class="cls-6" d="M1553.41,483.36l-26.75,74.8-27.46-74.8h-47.87V608h39.08V545.84L1509.59,608H1543l19.18-62.13V608h38.9V483.36Z"/><path class="cls-6" d="M1714.8,557.46q0-15.32-6.42-26.58a43.77,43.77,0,0,0-18-17.34,55.73,55.73,0,0,0-26.31-6.07,55.07,55.07,0,0,0-26.32,6.16,43.87,43.87,0,0,0-18,17.69q-6.42,11.53-6.42,27t6.42,27a43.81,43.81,0,0,0,18,17.69,55,55,0,0,0,26.32,6.16,52.41,52.41,0,0,0,22.61-4.84,47.71,47.71,0,0,0,17.07-13.2,43,43,0,0,0,8.89-18.92h-41.36a9.51,9.51,0,0,1-9.15,5.81q-9.86,0-10.74-12.85h62.84A55,55,0,0,0,1714.8,557.46ZM1652,548.13q1.76-10,12.15-10a12.26,12.26,0,0,1,7.92,2.55q3.17,2.55,3.16,7.48Z"/></g></g></g></svg>