<svg xmlns="http://www.w3.org/2000/svg" viewBox="0 0 1382.41 427.93"><defs><style>.cls-1{fill:#9a6c3f;}.cls-2{fill:#73553b;}.cls-3{fill:#a181fa;}.cls-4{fill:#feffaf;}.cls-5{fill:#0956cd;}.cls-6{fill:#fff;}</style></defs><g id="Warstwa_2" data-name="Warstwa 2"><g id="_1" data-name="1"><g id="long_dark" data-name="long dark"><g id="long"><g id="logo"><rect class="cls-1" x="5.48" y="62.4" width="501.3" height="360.31" rx="30"/><path class="cls-2" d="M30,57.18H78.33a0,0,0,0,1,0,0v0A78.33,78.33,0,0,1,0,135.51H0a0,0,0,0,1,0,0V87.18A30,30,0,0,1,30,57.18Z"/><path class="cls-2" d="M30,349.6H78.33a0,0,0,0,1,0,0v0A78.33,78.33,0,0,1,0,427.93H0a0,0,0,0,1,0,0V379.6A30,30,0,0,1,30,349.6Z" transform="translate(-349.6 427.93) rotate(-90)"/><path class="cls-2" d="M433.67,57.18h0A78.33,78.33,0,0,1,512,135.51v0a0,0,0,0,1,0,0H463.67a30,30,0,0,1-30-30V57.18a0,0,0,0,1,0,0Z" transform="translate(945.67 192.69) rotate(180)"/><path class="cls-2" d="M433.67,349.6h0A78.33,78.33,0,0,1,512,427.93v0a0,0,0,0,1,0,0H463.67a30,30,0,0,1-30-30V349.6A0,0,0,0,1,433.67,349.6Z" transform="translate(84.07 861.6) rotate(-90)"/><path class="cls-2" d="M342.29,39.16v23.5H313.57v-17a14.36,14.36,0,0,0-14.36-14.36H213.05a14.36,14.36,0,0,0-14.36,14.36v17H170V39.16A39.16,39.16,0,0,1,209.13,0h94A39.16,39.16,0,0,1,342.29,39.16Z"/><rect class="cls-2" x="103.39" y="57.18" width="41.77" height="370.75"/><rect class="cls-2" x="367.09" y="57.18" width="41.77" height="370.75"/><rect class="cls-3" x="168.98" y="155.82" width="174.29" height="116.2" transform="translate(-46.64 73.58) rotate(-15)"/><rect class="cls-4" x="191.76" y="238.49" width="148.82" height="99.21" transform="translate(54.07 -41.84) rotate(10)"/><path class="cls-5" d="M256.13,164.23a52.22,52.22,0,0,0-52.22,52.21c0,28.84,52.22,104.44,52.22,104.44s52.22-75.6,52.22-104.44A52.22,52.22,0,0,0,256.13,164.23Zm0,69.62a17.41,17.41,0,1,1,17.41-17.41A17.41,17.41,0,0,1,256.13,233.85Z"/></g><g id="name"><path class="cls-6" d="M687.22,222.81A32.36,32.36,0,0,0,674,209a39.8,39.8,0,0,0-19.54-4.67,42.68,42.68,0,0,0-21.65,5.46A38.28,38.28,0,0,0,618,225.28q-5.37,10-5.37,23.23A49,49,0,0,0,618,271.83a38.06,38.06,0,0,0,14.87,15.57,42.68,42.68,0,0,0,21.65,5.46q16.37,0,26.58-9.15t12.49-24.82H647.62v-16H715v15.66A60.42,60.42,0,0,1,654.48,311a63.18,63.18,0,0,1-31.5-8,59.68,59.68,0,0,1-22.62-22.26,66.23,66.23,0,0,1,0-64.42A59.54,59.54,0,0,1,623.06,194a63.39,63.39,0,0,1,31.42-8q19.53,0,34.76,9.59a54.67,54.67,0,0,1,22.09,27.19Z"/><path class="cls-6" d="M822.56,213v97H802.5V298.49a32.55,32.55,0,0,1-12.41,9.42,39.36,39.36,0,0,1-16.28,3.43,43.47,43.47,0,0,1-20.51-4.75,34.33,34.33,0,0,1-14.25-14.08q-5.2-9.33-5.19-22.53V213h19.88v54q0,13,6.51,20t17.78,7q11.26,0,17.87-7t6.6-20V213Z"/><path class="cls-6" d="M850,196.41a12.85,12.85,0,0,1,9.16-22,12.2,12.2,0,0,1,9,3.7,13.16,13.16,0,0,1,0,18.3,12.2,12.2,0,0,1-9,3.7A12.43,12.43,0,0,1,850,196.41ZM869,213v97H849V213Z"/><path class="cls-6" d="M894.8,235.13a44.27,44.27,0,0,1,39.87-23.76,45.44,45.44,0,0,1,18.74,4.14,38.37,38.37,0,0,1,14.7,11V179.69h20.24V309.93H968.11V295.32a37.53,37.53,0,0,1-13.64,11.62,42.35,42.35,0,0,1-20,4.58,43.32,43.32,0,0,1-23.14-6.43,45.32,45.32,0,0,1-16.55-17.95A55.32,55.32,0,0,1,888.73,261,53.78,53.78,0,0,1,894.8,235.13Zm69.17,8.8a29,29,0,0,0-10.82-11.26,28.33,28.33,0,0,0-14.43-3.87,28.86,28.86,0,0,0-14.44,3.78,28.45,28.45,0,0,0-10.82,11.09A34.59,34.59,0,0,0,909.32,261a36.08,36.08,0,0,0,4.14,17.6,29.08,29.08,0,0,0,10.91,11.53,28,28,0,0,0,14.35,4,28.33,28.33,0,0,0,14.43-3.87A28.85,28.85,0,0,0,964,278.87a35.61,35.61,0,0,0,4.14-17.51A35.11,35.11,0,0,0,964,243.93Z"/><path class="cls-6" d="M1102.92,268.92h-74.09q.87,11.63,8.62,18.66a27.24,27.24,0,0,0,19,7q16.18,0,22.88-13.55H1101A43.74,43.74,0,0,1,1085.06,303q-11.54,8.53-28.6,8.54a49.62,49.62,0,0,1-24.91-6.25,44.44,44.44,0,0,1-17.24-17.6q-6.25-11.35-6.25-26.31t6.07-26.32a42.79,42.79,0,0,1,17.07-17.51,50.9,50.9,0,0,1,25.26-6.16,49.38,49.38,0,0,1,24.46,6,42.29,42.29,0,0,1,16.72,16.8,50.64,50.64,0,0,1,6,24.91A62.47,62.47,0,0,1,1102.92,268.92Zm-20.24-16.19q-.18-11.08-7.92-17.77t-19.18-6.69a25.77,25.77,0,0,0-17.78,6.6q-7.4,6.6-8.8,17.86Z"/><path class="cls-5" d="M1268.71,185.32V309.93h-38.89V247.8l-19.19,62.13h-33.44L1158,247.8v62.13h-39.07V185.32h47.87l27.45,74.8,26.76-74.8Z"/><path class="cls-5" d="M1381.88,267.16h-62.83q.87,12.85,10.73,12.85a9.48,9.48,0,0,0,9.15-5.81h41.36a43,43,0,0,1-8.88,18.92,47.62,47.62,0,0,1-17.08,13.2,52.41,52.41,0,0,1-22.61,4.84,54.89,54.89,0,0,1-26.31-6.16,43.73,43.73,0,0,1-18-17.68q-6.43-11.54-6.43-27t6.43-27a43.73,43.73,0,0,1,18-17.68,54.89,54.89,0,0,1,26.31-6.16,55.58,55.58,0,0,1,26.31,6.07,43.75,43.75,0,0,1,18,17.33q6.42,11.26,6.43,26.58A54.92,54.92,0,0,1,1381.88,267.16Zm-39.07-17.07c0-3.28-1.06-5.78-3.17-7.48a12.22,12.22,0,0,0-7.92-2.55q-10.4,0-12.14,10Z"/></g></g></g></g></g></svg>